<?xml version="1.0" encoding="UTF-8" standalone="no"?>
<!-- Created with Inkscape (http://www.inkscape.org/) -->

<svg
   width="48"
   height="48"
   viewBox="0 0 48 48"
   version="1.1"
   id="svg1"
   xml:space="preserve"
   xmlns="http://www.w3.org/2000/svg"
   xmlns:svg="http://www.w3.org/2000/svg"><defs
     id="defs1" /><g
     id="layer1"
     transform="translate(-951.27916,-453.20929)"><g
       id="g89"
       transform="matrix(0.1199959,0,0,0.12,887.6557,398.82418)"
       style="stroke-width:8.3335"><path
         id="path87"
         style="font-variation-settings:'wght' 500;fill:#ffffff;stroke-width:416.674;stroke-linecap:square;stroke-linejoin:round;stroke-opacity:0.595525"
         d="m 585.93038,453.20929 h 288.57407 c 30.86499,0 55.71297,24.84798 55.71297,55.71296 v 288.57408 c 0,30.86498 -24.84798,55.71296 -55.71297,55.71296 H 585.93038 c -30.86498,0 -55.71296,-24.84798 -55.71296,-55.71296 V 508.92225 c 0,-30.86498 24.84798,-55.71296 55.71296,-55.71296 z" /><g
         id="g88"
         style="opacity:0.0564874;stroke-width:8.3335"><path
           id="path88"
           style="fill:#302929;stroke-width:8.3335;stroke-linecap:round;stroke-linejoin:round"
           d="m 532.21351,481.29913 a 1.999995,1.999995 0 0 0 -2,2 1.999995,1.999995 0 0 0 2,2 h 396.01368 a 1.999995,1.999995 0 0 0 2,-2 1.999995,1.999995 0 0 0 -2,-2 z m 0,30.5293 a 1.999995,1.999995 0 0 0 -2,2 1.999995,1.999995 0 0 0 2,2 h 396.01368 a 1.999995,1.999995 0 0 0 2,-2 1.999995,1.999995 0 0 0 -2,-2 z m 0,30.5293 a 1.999995,1.999995 0 0 0 -2,2 1.999995,1.999995 0 0 0 2,2 h 396.01368 a 1.999995,1.999995 0 0 0 2,-2 1.999995,1.999995 0 0 0 -2,-2 z m -0.002,31.14453 a 1.9900096,2.010035 0 0 0 -1.99023,2.00976 1.9900096,2.010035 0 0 0 1.99023,2.00977 h 396.01563 a 1.9900096,2.010035 0 0 0 1.99023,-2.00977 1.9900096,2.010035 0 0 0 -1.99023,-2.00976 z m 0.002,31.16406 a 1.999995,1.999995 0 0 0 -2,2 1.999995,1.999995 0 0 0 2,2 h 396.01368 a 1.999995,1.999995 0 0 0 2,-2 1.999995,1.999995 0 0 0 -2,-2 z m 0,31.1543 a 1.999995,1.999995 0 0 0 -2,2 1.999995,1.999995 0 0 0 2,2 h 396.01368 a 1.999995,1.999995 0 0 0 2,-2 1.999995,1.999995 0 0 0 -2,-2 z m -0.002,31.14453 a 1.9900096,2.010035 0 0 0 -1.99023,2.00977 1.9900096,2.010035 0 0 0 1.99023,2.00976 h 396.01563 a 1.9900096,2.010035 0 0 0 1.99023,-2.00976 1.9900096,2.010035 0 0 0 -1.99023,-2.00977 z m 0.002,31.16406 a 1.999995,1.999995 0 0 0 -2,2 1.999995,1.999995 0 0 0 2,2 h 396.01368 a 1.999995,1.999995 0 0 0 2,-2 1.999995,1.999995 0 0 0 -2,-2 z m 0,31.1543 a 1.999995,1.999995 0 0 0 -2,2 1.999995,1.999995 0 0 0 2,2 h 396.01368 a 1.999995,1.999995 0 0 0 2,-2 1.999995,1.999995 0 0 0 -2,-2 z m 0,31.1543 a 1.999995,1.999995 0 0 0 -2,2 1.999995,1.999995 0 0 0 2,2 h 396.01368 a 1.999995,1.999995 0 0 0 2,-2 1.999995,1.999995 0 0 0 -2,-2 z m 0,30.52929 a 1.999995,1.999995 0 0 0 -2,2 1.999995,1.999995 0 0 0 2,2 h 396.01368 a 1.999995,1.999995 0 0 0 2,-2 1.999995,1.999995 0 0 0 -2,-2 z m 0,30.5293 a 1.999995,1.999995 0 0 0 -2,2 1.999995,1.999995 0 0 0 2,2 h 396.01368 a 1.999995,1.999995 0 0 0 2,-2 1.999995,1.999995 0 0 0 -2,-2 z" /></g><path
         d="m 677.37674,764.27576 v -3.36565 l 13.79917,-3.36565 q 13.79916,-3.02909 13.79916,-16.82825 V 548.87416 h -28.60802 q -12.45291,0 -17.83795,6.7313 -5.38504,6.39473 -11.44321,17.83794 l -12.11634,23.55955 h -3.36565 l 1.68282,-54.86009 h 194.19801 l 1.34626,54.86009 h -3.36565 L 813.349,573.4434 q -5.7216,-11.44321 -11.10664,-17.83794 -5.38504,-6.7313 -17.83795,-6.7313 h -28.60802 v 191.84205 q 0,13.79916 13.79916,16.82825 l 13.79917,3.36565 v 3.36565 z"
         id="path89"
         style="font-size:336.565px;line-height:1;font-family:'DM Serif Display';-inkscape-font-specification:'DM Serif Display, @wght=400';font-variation-settings:'wght' 400;text-align:center;letter-spacing:0px;word-spacing:0px;text-anchor:middle;fill:#302c29;stroke-width:333.339;stroke-linecap:round;stroke-linejoin:round"
         aria-label="T" /></g></g></svg>
